<svg width="150" height="106" viewBox="0 0 150 106" fill="none" xmlns="http://www.w3.org/2000/svg">
<circle cx="32.5" cy="53.3291" r="4" fill="#444444"/>
<path d="M15.3333 69.3291H12.2133V61.3251H15.2373C15.8933 61.3251 16.4013 61.5171 16.7613 61.9011C17.1213 62.2851 17.3013 62.7731 17.3013 63.3651C17.3013 63.8531 17.1813 64.2571 16.9413 64.5771C16.7093 64.8891 16.4093 65.0971 16.0413 65.2011C16.4333 65.2571 16.7613 65.4771 17.0253 65.8611C17.2973 66.2371 17.4333 66.6731 17.4333 67.1691C17.4333 67.8171 17.2533 68.3411 16.8933 68.7411C16.5333 69.1331 16.0133 69.3291 15.3333 69.3291ZM14.9493 64.6611C15.2773 64.6611 15.5213 64.5651 15.6813 64.3731C15.8493 64.1731 15.9333 63.9091 15.9333 63.5811C15.9333 63.2531 15.8493 62.9891 15.6813 62.7891C15.5133 62.5891 15.2693 62.4891 14.9493 62.4891H13.5453V64.6611H14.9493ZM14.9973 68.1531C15.3493 68.1531 15.6133 68.0531 15.7893 67.8531C15.9733 67.6451 16.0653 67.3571 16.0653 66.9891C16.0653 66.6531 15.9733 66.3771 15.7893 66.1611C15.6053 65.9451 15.3413 65.8371 14.9973 65.8371H13.5453V68.1531H14.9973ZM22.6898 68.5971C22.2498 69.1811 21.6378 69.4731 20.8538 69.4731C20.0698 69.4731 19.4538 69.1811 19.0058 68.5971C18.5658 68.0131 18.3458 67.2891 18.3458 66.4251C18.3458 65.5611 18.5658 64.8411 19.0058 64.2651C19.4458 63.6811 20.0618 63.3891 20.8538 63.3891C21.6458 63.3891 22.2618 63.6811 22.7018 64.2651C23.1418 64.8411 23.3618 65.5611 23.3618 66.4251C23.3618 67.2891 23.1378 68.0131 22.6898 68.5971ZM19.9058 67.8411C20.1218 68.2251 20.4378 68.4171 20.8538 68.4171C21.2698 68.4171 21.5858 68.2251 21.8018 67.8411C22.0178 67.4571 22.1258 66.9851 22.1258 66.4251C22.1258 65.8651 22.0178 65.3971 21.8018 65.0211C21.5858 64.6371 21.2698 64.4451 20.8538 64.4451C20.4378 64.4451 20.1218 64.6371 19.9058 65.0211C19.6898 65.3971 19.5818 65.8651 19.5818 66.4251C19.5818 66.9851 19.6898 67.4571 19.9058 67.8411ZM28.7172 68.6451C28.3412 69.1971 27.8292 69.4731 27.1812 69.4731C26.5332 69.4731 26.0372 69.1651 25.6932 68.5491V71.5371H24.4932V63.5331H25.6932V64.3011C25.8612 64.0131 26.0772 63.7891 26.3412 63.6291C26.6052 63.4691 26.8852 63.3891 27.1812 63.3891C27.8372 63.3891 28.3532 63.6611 28.7292 64.2051C29.1052 64.7491 29.2932 65.4891 29.2932 66.4251C29.2932 67.3531 29.1012 68.0931 28.7172 68.6451ZM26.8212 68.4171C27.2212 68.4171 27.5252 68.2331 27.7332 67.8651C27.9492 67.4891 28.0572 67.0091 28.0572 66.4251C28.0572 65.8411 27.9492 65.3651 27.7332 64.9971C27.5252 64.6291 27.2212 64.4451 26.8212 64.4451C26.5972 64.4451 26.3772 64.5211 26.1612 64.6731C25.9532 64.8251 25.7972 65.0131 25.6932 65.2371V67.6131C25.7972 67.8371 25.9532 68.0291 26.1612 68.1891C26.3772 68.3411 26.5972 68.4171 26.8212 68.4171ZM34.4554 68.5971C34.0154 69.1811 33.4034 69.4731 32.6194 69.4731C31.8354 69.4731 31.2194 69.1811 30.7714 68.5971C30.3314 68.0131 30.1114 67.2891 30.1114 66.4251C30.1114 65.5611 30.3314 64.8411 30.7714 64.2651C31.2114 63.6811 31.8274 63.3891 32.6194 63.3891C33.4114 63.3891 34.0274 63.6811 34.4674 64.2651C34.9074 64.8411 35.1274 65.5611 35.1274 66.4251C35.1274 67.2891 34.9034 68.0131 34.4554 68.5971ZM31.6714 67.8411C31.8874 68.2251 32.2034 68.4171 32.6194 68.4171C33.0354 68.4171 33.3514 68.2251 33.5674 67.8411C33.7834 67.4571 33.8914 66.9851 33.8914 66.4251C33.8914 65.8651 33.7834 65.3971 33.5674 65.0211C33.3514 64.6371 33.0354 64.4451 32.6194 64.4451C32.2034 64.4451 31.8874 64.6371 31.6714 65.0211C31.4554 65.3971 31.3474 65.8651 31.3474 66.4251C31.3474 66.9851 31.4554 67.4571 31.6714 67.8411ZM37.4588 69.3291H36.2588V63.5331H37.4588V65.8131H39.4748V63.5331H40.6628V69.3291H39.4748V66.8571H37.4588V69.3291ZM44.399 69.4731C43.607 69.4731 42.975 69.1931 42.503 68.6331C42.031 68.0731 41.795 67.3371 41.795 66.4251C41.795 65.5611 42.019 64.8411 42.467 64.2651C42.923 63.6811 43.527 63.3891 44.279 63.3891C45.039 63.3891 45.631 63.6771 46.055 64.2531C46.479 64.8291 46.691 65.5691 46.691 66.4731V66.8211H43.007C43.031 67.3171 43.175 67.7211 43.439 68.0331C43.703 68.3371 44.063 68.4891 44.519 68.4891C45.039 68.4891 45.475 68.2811 45.827 67.8651L46.403 68.5851C45.883 69.1771 45.215 69.4731 44.399 69.4731ZM45.527 65.9691C45.519 65.5451 45.411 65.1731 45.203 64.8531C45.003 64.5251 44.691 64.3611 44.267 64.3611C43.859 64.3611 43.551 64.5251 43.343 64.8531C43.135 65.1811 43.019 65.5531 42.995 65.9691H45.527ZM48.5586 69.3291H47.1546L49.1106 66.1371L47.1906 63.5331H48.5826L50.1786 65.7651V63.5331H51.3786V65.7651L52.9746 63.5331H54.3666L52.4466 66.1371L54.4026 69.3291H52.9986L51.6306 66.9051L51.3786 67.2411V69.3291H50.1786V67.2411L49.9266 66.9051L48.5586 69.3291Z" fill="#444444"/>
<circle cx="118" cy="4.32275" r="4" fill="#444444"/>
<path d="M94.206 20.3228H92.73L94.278 17.0708C93.87 16.9588 93.518 16.7148 93.222 16.3388C92.934 15.9548 92.79 15.4388 92.79 14.7908C92.79 14.0548 93.006 13.4588 93.438 13.0028C93.87 12.5468 94.434 12.3188 95.13 12.3188H97.878V20.3228H96.558V17.2988H95.574L94.206 20.3228ZM95.31 16.1228H96.558V13.4828H95.31C94.958 13.4828 94.678 13.6028 94.47 13.8428C94.262 14.0828 94.158 14.4028 94.158 14.8028C94.158 15.2028 94.262 15.5228 94.47 15.7628C94.678 16.0028 94.958 16.1228 95.31 16.1228ZM103.58 19.6388C103.204 20.1908 102.692 20.4668 102.044 20.4668C101.396 20.4668 100.9 20.1588 100.556 19.5428V22.5308H99.3564V14.5268H100.556V15.2948C100.724 15.0068 100.94 14.7828 101.204 14.6228C101.468 14.4628 101.748 14.3828 102.044 14.3828C102.7 14.3828 103.216 14.6548 103.592 15.1988C103.968 15.7428 104.156 16.4828 104.156 17.4188C104.156 18.3468 103.964 19.0868 103.58 19.6388ZM101.684 19.4108C102.084 19.4108 102.388 19.2268 102.596 18.8588C102.812 18.4828 102.92 18.0028 102.92 17.4188C102.92 16.8348 102.812 16.3588 102.596 15.9908C102.388 15.6228 102.084 15.4388 101.684 15.4388C101.46 15.4388 101.24 15.5148 101.024 15.6668C100.816 15.8188 100.66 16.0068 100.556 16.2308V18.6068C100.66 18.8308 100.816 19.0228 101.024 19.1828C101.24 19.3348 101.46 19.4108 101.684 19.4108ZM109.319 19.5908C108.879 20.1748 108.267 20.4668 107.483 20.4668C106.699 20.4668 106.083 20.1748 105.635 19.5908C105.195 19.0068 104.975 18.2828 104.975 17.4188C104.975 16.5548 105.195 15.8348 105.635 15.2588C106.075 14.6748 106.691 14.3828 107.483 14.3828C108.275 14.3828 108.891 14.6748 109.331 15.2588C109.771 15.8348 109.991 16.5548 109.991 17.4188C109.991 18.2828 109.767 19.0068 109.319 19.5908ZM106.535 18.8348C106.751 19.2188 107.067 19.4108 107.483 19.4108C107.899 19.4108 108.215 19.2188 108.431 18.8348C108.647 18.4508 108.755 17.9788 108.755 17.4188C108.755 16.8588 108.647 16.3908 108.431 16.0148C108.215 15.6308 107.899 15.4388 107.483 15.4388C107.067 15.4388 106.751 15.6308 106.535 16.0148C106.319 16.3908 106.211 16.8588 106.211 17.4188C106.211 17.9788 106.319 18.4508 106.535 18.8348ZM115.142 19.6868C114.726 20.2068 114.138 20.4668 113.378 20.4668C112.618 20.4668 112.002 20.1828 111.53 19.6148C111.066 19.0388 110.834 18.3068 110.834 17.4188C110.834 16.5308 111.066 15.8028 111.53 15.2348C111.994 14.6668 112.61 14.3828 113.378 14.3828C114.138 14.3828 114.726 14.6428 115.142 15.1628L114.53 15.9788C114.25 15.6188 113.906 15.4388 113.498 15.4388C113.058 15.4388 112.71 15.6268 112.454 16.0028C112.198 16.3788 112.07 16.8508 112.07 17.4188C112.07 17.9948 112.198 18.4708 112.454 18.8468C112.71 19.2228 113.058 19.4108 113.498 19.4108C113.898 19.4108 114.242 19.2308 114.53 18.8708L115.142 19.6868ZM115.611 20.4668V19.4468C115.859 19.4468 116.051 19.3148 116.187 19.0508C116.331 18.7868 116.435 18.2908 116.499 17.5628L116.763 14.5268H120.507V20.3228H119.319V15.5708H117.855L117.699 17.6588C117.619 18.6828 117.407 19.4068 117.063 19.8308C116.719 20.2548 116.235 20.4668 115.611 20.4668ZM126.115 20.3228H124.927V19.7348C124.575 20.2228 124.067 20.4668 123.403 20.4668C122.907 20.4668 122.487 20.2948 122.143 19.9508C121.799 19.5988 121.627 19.1268 121.627 18.5348C121.627 17.9428 121.799 17.4828 122.143 17.1548C122.487 16.8188 122.907 16.6508 123.403 16.6508C124.083 16.6508 124.591 16.8828 124.927 17.3468V16.5068C124.927 16.1548 124.827 15.8828 124.627 15.6908C124.435 15.4988 124.159 15.4028 123.799 15.4028C123.271 15.4028 122.791 15.6228 122.359 16.0628L121.891 15.2228C122.451 14.6628 123.159 14.3828 124.015 14.3828C124.655 14.3828 125.163 14.5468 125.539 14.8748C125.923 15.1948 126.115 15.6908 126.115 16.3628V20.3228ZM123.835 19.6388C124.315 19.6388 124.679 19.4268 124.927 19.0028V18.1268C124.815 17.9268 124.659 17.7708 124.459 17.6588C124.259 17.5388 124.051 17.4788 123.835 17.4788C123.531 17.4788 123.287 17.5788 123.103 17.7788C122.919 17.9788 122.827 18.2388 122.827 18.5588C122.827 18.8788 122.919 19.1388 123.103 19.3388C123.287 19.5388 123.531 19.6388 123.835 19.6388ZM130.276 20.3228H127.528V14.5268H130.204C130.772 14.5268 131.204 14.6668 131.5 14.9468C131.804 15.2188 131.956 15.5708 131.956 16.0028C131.956 16.3388 131.864 16.6228 131.68 16.8548C131.504 17.0788 131.264 17.2348 130.96 17.3228C131.28 17.3948 131.544 17.5668 131.752 17.8388C131.96 18.1028 132.064 18.4068 132.064 18.7508C132.064 19.2228 131.912 19.6028 131.608 19.8908C131.312 20.1788 130.868 20.3228 130.276 20.3228ZM130.024 19.3148C130.568 19.3148 130.84 19.0748 130.84 18.5948C130.84 18.3868 130.768 18.2108 130.624 18.0668C130.488 17.9228 130.288 17.8508 130.024 17.8508H128.728V19.3148H130.024ZM129.976 16.8548C130.472 16.8548 130.72 16.6348 130.72 16.1948C130.72 15.9948 130.656 15.8348 130.528 15.7148C130.408 15.5868 130.224 15.5228 129.976 15.5228H128.728V16.8548H129.976ZM132.884 20.4668V19.4468C133.132 19.4468 133.324 19.3148 133.46 19.0508C133.604 18.7868 133.708 18.2908 133.772 17.5628L134.036 14.5268H137.78V20.3228H136.592V15.5708H135.128L134.972 17.6588C134.892 18.6828 134.68 19.4068 134.336 19.8308C133.992 20.2548 133.508 20.4668 132.884 20.4668ZM139.2 14.5268H140.4V16.6508H141.684C142.316 16.6508 142.796 16.8268 143.124 17.1788C143.46 17.5308 143.628 17.9708 143.628 18.4988C143.628 19.0188 143.456 19.4548 143.112 19.8068C142.776 20.1508 142.3 20.3228 141.684 20.3228H139.2V14.5268ZM141.54 17.6588H140.4V19.3148H141.54C141.812 19.3148 142.024 19.2388 142.176 19.0868C142.328 18.9348 142.404 18.7348 142.404 18.4868C142.404 18.2468 142.328 18.0508 142.176 17.8988C142.024 17.7388 141.812 17.6588 141.54 17.6588Z" fill="#444444"/>
<circle cx="29" cy="84" r="4" fill="#444444"/>
<path d="M7.04144 91.996H11.6014V93.16H8.37344V95.02H9.76544C10.5174 95.02 11.0974 95.26 11.5054 95.74C11.9214 96.212 12.1294 96.8 12.1294 97.504C12.1294 98.216 11.9214 98.812 11.5054 99.292C11.0974 99.764 10.5174 100 9.76544 100H7.04144V91.996ZM9.60944 96.184H8.37344V98.824H9.60944C9.96144 98.824 10.2414 98.704 10.4494 98.464C10.6654 98.224 10.7734 97.904 10.7734 97.504C10.7734 97.112 10.6654 96.796 10.4494 96.556C10.2414 96.308 9.96144 96.184 9.60944 96.184ZM15.4498 100.144C14.6578 100.144 14.0258 99.864 13.5538 99.304C13.0818 98.744 12.8458 98.008 12.8458 97.096C12.8458 96.232 13.0698 95.512 13.5178 94.936C13.9738 94.352 14.5778 94.06 15.3298 94.06C16.0898 94.06 16.6818 94.348 17.1058 94.924C17.5298 95.5 17.7418 96.24 17.7418 97.144V97.492H14.0578C14.0818 97.988 14.2258 98.392 14.4898 98.704C14.7538 99.008 15.1138 99.16 15.5698 99.16C16.0898 99.16 16.5258 98.952 16.8778 98.536L17.4538 99.256C16.9338 99.848 16.2658 100.144 15.4498 100.144ZM16.5778 96.64C16.5698 96.216 16.4618 95.844 16.2538 95.524C16.0538 95.196 15.7418 95.032 15.3178 95.032C14.9098 95.032 14.6018 95.196 14.3938 95.524C14.1858 95.852 14.0698 96.224 14.0458 96.64H16.5778ZM18.3254 100.144V99.124C18.5734 99.124 18.7654 98.992 18.9014 98.728C19.0454 98.464 19.1494 97.968 19.2134 97.24L19.4774 94.204H23.2214V100H22.0334V95.248H20.5694L20.4134 97.336C20.3334 98.36 20.1214 99.084 19.7774 99.508C19.4334 99.932 18.9494 100.144 18.3254 100.144ZM28.2416 94.204V95.248H25.8416V100H24.6416V94.204H28.2416ZM33.221 99.268C32.781 99.852 32.169 100.144 31.385 100.144C30.601 100.144 29.985 99.852 29.537 99.268C29.097 98.684 28.877 97.96 28.877 97.096C28.877 96.232 29.097 95.512 29.537 94.936C29.977 94.352 30.593 94.06 31.385 94.06C32.177 94.06 32.793 94.352 33.233 94.936C33.673 95.512 33.893 96.232 33.893 97.096C33.893 97.96 33.669 98.684 33.221 99.268ZM30.437 98.512C30.653 98.896 30.969 99.088 31.385 99.088C31.801 99.088 32.117 98.896 32.333 98.512C32.549 98.128 32.657 97.656 32.657 97.096C32.657 96.536 32.549 96.068 32.333 95.692C32.117 95.308 31.801 95.116 31.385 95.116C30.969 95.116 30.653 95.308 30.437 95.692C30.221 96.068 30.113 96.536 30.113 97.096C30.113 97.656 30.221 98.128 30.437 98.512ZM39.2484 99.316C38.8724 99.868 38.3604 100.144 37.7124 100.144C37.0644 100.144 36.5684 99.836 36.2244 99.22V102.208H35.0244V94.204H36.2244V94.972C36.3924 94.684 36.6084 94.46 36.8724 94.3C37.1364 94.14 37.4164 94.06 37.7124 94.06C38.3684 94.06 38.8844 94.332 39.2604 94.876C39.6364 95.42 39.8244 96.16 39.8244 97.096C39.8244 98.024 39.6324 98.764 39.2484 99.316ZM37.3524 99.088C37.7524 99.088 38.0564 98.904 38.2644 98.536C38.4804 98.16 38.5884 97.68 38.5884 97.096C38.5884 96.512 38.4804 96.036 38.2644 95.668C38.0564 95.3 37.7524 95.116 37.3524 95.116C37.1284 95.116 36.9084 95.192 36.6924 95.344C36.4844 95.496 36.3284 95.684 36.2244 95.908V98.284C36.3284 98.508 36.4844 98.7 36.6924 98.86C36.9084 99.012 37.1284 99.088 37.3524 99.088ZM44.9867 99.268C44.5467 99.852 43.9347 100.144 43.1507 100.144C42.3667 100.144 41.7507 99.852 41.3027 99.268C40.8627 98.684 40.6427 97.96 40.6427 97.096C40.6427 96.232 40.8627 95.512 41.3027 94.936C41.7427 94.352 42.3587 94.06 43.1507 94.06C43.9427 94.06 44.5587 94.352 44.9987 94.936C45.4387 95.512 45.6587 96.232 45.6587 97.096C45.6587 97.96 45.4347 98.684 44.9867 99.268ZM42.2027 98.512C42.4187 98.896 42.7347 99.088 43.1507 99.088C43.5667 99.088 43.8827 98.896 44.0987 98.512C44.3147 98.128 44.4227 97.656 44.4227 97.096C44.4227 96.536 44.3147 96.068 44.0987 95.692C43.8827 95.308 43.5667 95.116 43.1507 95.116C42.7347 95.116 42.4187 95.308 42.2027 95.692C41.9867 96.068 41.8787 96.536 41.8787 97.096C41.8787 97.656 41.9867 98.128 42.2027 98.512ZM46.298 101.476V99.052C46.57 98.996 46.77 98.856 46.898 98.632C47.026 98.408 47.122 97.944 47.186 97.24L47.45 94.204H51.194V98.956H51.818V101.476H50.618V100H47.486V101.476H46.298ZM48.542 95.248L48.386 97.336C48.33 98.056 48.114 98.596 47.738 98.956H50.006V95.248H48.542Z" fill="#444444"/>
</svg>
